<svg width="195" height="43" xmlns="http://www.w3.org/2000/svg" xmlns:xlink="http://www.w3.org/1999/xlink" overflow="hidden"><defs><clipPath id="clip0"><rect x="35" y="35" width="195" height="43"/></clipPath></defs><g clip-path="url(#clip0)" transform="translate(-35 -35)"><path d="M151.5 53.0147 166.015 53.0148 170.5 38.5001 174.985 53.0148 189.5 53.0147 177.757 61.9853 182.243 76.5 170.5 67.5293 158.757 76.5 163.243 61.9853Z" stroke="#BF9000" stroke-width="1.33333" stroke-miterlimit="8" fill="#FFC000" fill-rule="evenodd"/><path d="M189.5 53.0147 204.015 53.0148 208.5 38.5001 212.985 53.0148 227.5 53.0147 215.757 61.9853 220.243 76.5 208.5 67.5293 196.757 76.5 201.243 61.9853Z" stroke="#BF9000" stroke-width="1.33333" stroke-miterlimit="8" fill="#FFC000" fill-rule="evenodd"/><path d="M113.5 53.0147 128.015 53.0148 132.5 38.5001 136.985 53.0148 151.5 53.0147 139.757 61.9853 144.243 76.5 132.5 67.5293 120.757 76.5 125.243 61.9853Z" stroke="#BF9000" stroke-width="1.33333" stroke-miterlimit="8" fill="#FFC000" fill-rule="evenodd"/><path d="M76.5001 53.0147 90.6329 53.0148 95.0001 38.5001 99.3672 53.0148 113.5 53.0147 102.066 61.9853 106.434 76.5 95.0001 67.5293 83.5664 76.5 87.9338 61.9853Z" stroke="#BF9000" stroke-width="1.33333" stroke-miterlimit="8" fill="#FFC000" fill-rule="evenodd"/><path d="M38.5001 53.0147 53.0149 53.0148 57.5001 38.5001 61.9853 53.0148 76.5 53.0147 64.7573 61.9853 69.2427 76.5 57.5001 67.5293 45.7574 76.5 50.2428 61.9853Z" stroke="#BF9000" stroke-width="1.33333" stroke-miterlimit="8" fill="#FFC000" fill-rule="evenodd"/></g></svg>