<?xml version="1.0" standalone="no"?>
<!DOCTYPE svg PUBLIC "-//W3C//DTD SVG 20010904//EN"
 "http://www.w3.org/TR/2001/REC-SVG-20010904/DTD/svg10.dtd">
<svg version="1.0" xmlns="http://www.w3.org/2000/svg"
 width="163.000000pt" height="94.000000pt" viewBox="0 0 163.000000 94.000000"
 preserveAspectRatio="xMidYMid meet">

<g transform="translate(0.000000,94.000000) scale(0.100000,-0.100000)"
fill="#000000" stroke="none">
<path d="M787 723 c-4 -3 -7 -19 -7 -34 0 -22 6 -30 25 -35 43 -11 73 34 43
64 -13 13 -50 16 -61 5z"/>
<path d="M920 520 l0 -210 34 0 c19 0 36 5 38 10 2 7 16 5 36 -6 98 -48 183
57 153 190 -7 31 -22 62 -35 75 -32 30 -89 38 -121 17 l-25 -16 0 75 0 75 -40
0 -40 0 0 -210z m165 16 c13 -10 20 -30 23 -74 4 -51 1 -63 -17 -81 -25 -25
-54 -27 -75 -5 -17 16 -23 128 -8 150 16 24 51 29 77 10z"/>
<path d="M170 603 c0 -4 21 -72 47 -150 l47 -143 37 0 37 0 51 151 50 150 -42
-3 -41 -3 -25 -93 c-13 -51 -28 -89 -31 -85 -4 4 -18 47 -30 96 l-23 87 -39 0
c-21 0 -38 -3 -38 -7z"/>
<path d="M523 596 c-30 -14 -53 -42 -53 -65 0 -17 66 -13 80 5 8 9 25 14 44
12 25 -2 32 -8 34 -30 3 -26 1 -28 -33 -28 -47 0 -98 -22 -119 -51 -54 -78 39
-169 130 -125 19 8 34 11 34 6 0 -6 18 -10 41 -10 33 0 40 3 35 16 -3 9 -6 60
-6 115 0 94 -1 100 -28 130 -23 26 -37 32 -78 35 -29 3 -62 -1 -81 -10z m107
-186 c0 -51 -81 -72 -88 -22 -5 33 15 52 54 52 31 0 34 -3 34 -30z"/>
<path d="M780 460 l0 -150 40 0 40 0 0 150 0 150 -40 0 -40 0 0 -150z"/>
<path d="M1301 592 c-45 -25 -71 -74 -71 -137 0 -97 62 -161 149 -152 80 9
125 63 125 152 0 89 -45 143 -125 152 -31 3 -54 -1 -78 -15z m104 -67 c19 -18
25 -35 25 -70 0 -35 -6 -52 -25 -70 -27 -28 -37 -30 -65 -15 -41 22 -44 138
-4 167 26 19 42 16 69 -12z"/>
</g>
</svg>
