<svg width="207" height="204" xmlns="http://www.w3.org/2000/svg" xmlns:xlink="http://www.w3.org/1999/xlink" overflow="hidden"><defs><clipPath id="clip0"><rect x="563" y="283" width="207" height="204"/></clipPath></defs><g clip-path="url(#clip0)" transform="translate(-563 -283)"><path d="M564.5 360.5C564.5 318.526 598.526 284.5 640.5 284.5 682.474 284.5 716.5 318.526 716.5 360.5 716.5 402.474 682.474 436.5 640.5 436.5 598.526 436.5 564.5 402.474 564.5 360.5Z" stroke="#2F528F" stroke-width="1.33333" stroke-miterlimit="8" fill="#063E58" fill-rule="evenodd"/><path d="M583.5 360.5C583.5 329.02 609.02 303.5 640.5 303.5 671.98 303.5 697.5 329.02 697.5 360.5 697.5 391.98 671.98 417.5 640.5 417.5 609.02 417.5 583.5 391.98 583.5 360.5Z" stroke="#2F528F" stroke-width="1.33333" stroke-miterlimit="8" fill="#FFFFFF" fill-rule="evenodd"/><path d="M699.5 416.5 756.193 473.193" stroke="#063E58" stroke-width="26.6667" stroke-linejoin="round" stroke-miterlimit="10" fill="none" fill-rule="evenodd"/></g></svg>